<svg width="34" height="34" viewBox="0 0 34 34" fill="none" xmlns="http://www.w3.org/2000/svg">
<path d="M16.5971 17.1221L16.5589 17.1458L16.5881 17.1164L16.5936 17.111L16.6021 17.119L16.6177 17.1352L16.5971 17.1221ZM32.8938 13.9215H6.81169C7.06753 13.1355 7.41535 12.3907 7.84285 11.7005C8.2637 11.021 8.76114 10.3944 9.32355 9.83195C11.1848 7.97212 13.7555 6.8217 16.5947 6.8217C19.4324 6.8217 22.0014 7.9707 23.8624 9.82886L28.3261 5.35713C25.3222 2.35779 21.1748 0.503418 16.5947 0.503418C12.7165 0.503418 9.14857 1.83285 6.32255 4.06137C5.80899 4.4661 5.32032 4.90023 4.85869 5.36163C3.95177 6.2676 3.14918 7.27789 2.47036 8.3733C1.43257 10.0479 0.684276 11.9206 0.295666 13.9215C0.13088 14.7691 0.030349 15.6398 0 16.5279V17.6883C0.030349 18.5751 0.130405 19.444 0.294716 20.2903H26.3792C26.121 21.085 25.7687 21.8371 25.3353 22.534C24.9158 23.2078 24.4208 23.83 23.8619 24.3879C22.0009 26.2455 19.4319 27.3943 16.5947 27.3943C13.7581 27.3943 11.1895 26.2463 9.32876 24.389L6.32255 27.4009L4.86485 28.861C5.32483 29.32 5.8116 29.7523 6.32255 30.1549C9.14857 32.3832 12.7165 33.7128 16.5947 33.7128C21.1753 33.7128 25.3227 31.858 28.327 28.8584C29.2304 27.9565 30.0303 26.9507 30.7077 25.861C31.7522 24.1806 32.5047 22.3002 32.8948 20.2903C33.0842 19.3146 33.1883 18.3083 33.1985 17.2798V16.9365C33.1883 15.9063 33.084 14.8988 32.8938 13.9215Z" fill="white"/>
</svg>
